<svg width="1280" height="720" xmlns="http://www.w3.org/2000/svg" xmlns:xlink="http://www.w3.org/1999/xlink" overflow="hidden"><g><rect x="0" y="0" width="1280" height="720" fill="#FFFFFF"/><path d="M15 79.3177C15 69.2011 23.2011 61 33.3177 61L1250.68 61C1260.8 61 1269 69.2011 1269 79.3177L1269 687.695C1269 697.811 1260.8 706.012 1250.68 706.012L33.3177 706.012C23.2011 706.012 15 697.811 15 687.695Z" stroke="#275317" stroke-width="6" stroke-miterlimit="8" fill="#B4E5A2" fill-rule="evenodd"/><path d="M15 45C15 40.5817 18.5817 37 22.9999 37L319 37C323.418 37 327 40.5817 327 45L327 77C327 81.4183 323.418 85 319 85L22.9999 85C18.5817 85 15 81.4183 15 77Z" stroke="#275317" stroke-width="6" stroke-miterlimit="8" fill="#FFFFFF" fill-rule="evenodd"/><text font-family="PlemolJP35 Console NF Medium,PlemolJP35 Console NF Medium_MSFontService,sans-serif" font-weight="500" font-size="23" transform="translate(61.6962 68)">Simple allocator</text><path d="M36.9826 191.983 148.337 191.983 148.337 304.854 36.9826 304.854Z" fill="#156082" fill-rule="evenodd"/><path d="M148.337 191.983 259.692 191.983 259.692 304.854 148.337 304.854Z" fill="#156082" fill-rule="evenodd"/><path d="M259.692 191.983 371.047 191.983 371.047 304.854 259.692 304.854Z" fill="#156082" fill-rule="evenodd"/><path d="M371.047 191.983 482.402 191.983 482.402 304.854 371.047 304.854Z" fill="#156082" fill-rule="evenodd"/><path d="M482.402 191.983 593.756 191.983 593.756 304.854 482.402 304.854Z" fill="#156082" fill-rule="evenodd"/><path d="M593.756 191.983 705.111 191.983 705.111 304.854 593.756 304.854Z" fill="#156082" fill-rule="evenodd"/><path d="M148.337 191.316 148.337 306.854" stroke="#FFFFFF" stroke-width="1.33333" stroke-linejoin="round" stroke-miterlimit="10" fill="none" fill-rule="evenodd"/><path d="M259.692 191.316 259.692 306.854" stroke="#FFFFFF" stroke-width="1.33333" stroke-linejoin="round" stroke-miterlimit="10" fill="none" fill-rule="evenodd"/><path d="M371.047 191.316 371.047 306.854" stroke="#FFFFFF" stroke-width="1.33333" stroke-linejoin="round" stroke-miterlimit="10" fill="none" fill-rule="evenodd"/><path d="M482.402 191.316 482.402 306.854" stroke="#FFFFFF" stroke-width="1.33333" stroke-linejoin="round" stroke-miterlimit="10" fill="none" fill-rule="evenodd"/><path d="M593.756 191.316 593.756 306.854" stroke="#FFFFFF" stroke-width="1.33333" stroke-linejoin="round" stroke-miterlimit="10" fill="none" fill-rule="evenodd"/><path d="M36.9826 191.316 36.9826 306.854" stroke="#FFFFFF" stroke-width="1.33333" stroke-linejoin="round" stroke-miterlimit="10" fill="none" fill-rule="evenodd"/><path d="M705.111 191.316 705.111 306.854" stroke="#FFFFFF" stroke-width="1.33333" stroke-linejoin="round" stroke-miterlimit="10" fill="none" fill-rule="evenodd"/><path d="M36.3159 191.983 705.778 191.983" stroke="#FFFFFF" stroke-width="1.33333" stroke-linejoin="round" stroke-miterlimit="10" fill="none" fill-rule="evenodd"/><path d="M36.3159 304.854 705.778 304.854" stroke="#FFFFFF" stroke-width="4" stroke-linejoin="round" stroke-miterlimit="10" fill="none" fill-rule="evenodd"/><path d="M39 107.5C39 102.253 43.2533 98 48.5001 98L216.5 98C221.747 98 226 102.253 226 107.5L226 145.5C226 150.747 221.747 155 216.5 155L48.5001 155C43.2533 155 39 150.747 39 145.5Z" stroke="#3B7D23" stroke-width="4" stroke-miterlimit="8" fill="#FFFFFF" fill-rule="evenodd"/><text font-family="PlemolJP35 Console NF Medium,PlemolJP35 Console NF Medium_MSFontService,sans-serif" font-weight="500" font-size="21" transform="translate(93.9741 133)">malloc</text><path d="M262 315 262 447.516" stroke="#FF0000" stroke-width="2" stroke-miterlimit="8" fill="none" fill-rule="evenodd"/><path d="M765 94.6668C765 89.328 769.328 85 774.667 85L942.333 85C947.672 85 952 89.328 952 94.6668L952 133.333C952 138.672 947.672 143 942.333 143L774.667 143C769.328 143 765 138.672 765 133.333Z" stroke="#3B7D23" stroke-width="4" stroke-miterlimit="8" fill="#FFFFFF" fill-rule="evenodd"/><text font-family="PlemolJP35 Console NF Medium,PlemolJP35 Console NF Medium_MSFontService,sans-serif" font-weight="500" font-size="21" transform="translate(833.303 121)">free</text><path d="M173 367 240.999 367 240.999 371 173 371ZM238.999 363 250.999 369 238.999 375Z" fill="#FF0000"/><path d="M156 315 156 447.516" stroke="#FF0000" stroke-width="2" stroke-miterlimit="8" fill="none" fill-rule="evenodd"/><text fill="#FF0000" font-family="PlemolJP35 Console NF Medium,PlemolJP35 Console NF Medium_MSFontService,sans-serif" font-weight="500" font-size="21" transform="translate(61.7671 499)">②</text><text fill="#FF0000" font-family="PlemolJP35 Console NF Medium,PlemolJP35 Console NF Medium_MSFontService,sans-serif" font-weight="500" font-size="21" transform="translate(95.9338 499)">Increment the allocation count.</text><text fill="#FF0000" font-family="PlemolJP35 Console NF Medium,PlemolJP35 Console NF Medium_MSFontService,sans-serif" font-weight="500" font-size="21" transform="translate(61.7671 525)">③</text><text fill="#FF0000" font-family="PlemolJP35 Console NF Medium,PlemolJP35 Console NF Medium_MSFontService,sans-serif" font-weight="500" font-size="21" transform="translate(95.9338 525)">Return the previously allocated memory location.</text><text fill="#FF0000" font-family="PlemolJP35 Console NF Medium,PlemolJP35 Console NF Medium_MSFontService,sans-serif" font-weight="500" font-size="21" transform="translate(61.7671 374)">①</text><text fill="#FF0000" font-family="PlemolJP35 Console NF Medium,PlemolJP35 Console NF Medium_MSFontService,sans-serif" font-weight="500" font-size="21" transform="translate(61.7671 400)">allocatedMemoryLocation</text><text fill="#FF0000" font-family="PlemolJP35 Console NF Medium,PlemolJP35 Console NF Medium_MSFontService,sans-serif" font-weight="500" font-size="21" transform="translate(369.767 400)">+= size;</text><text fill="#0059CC" font-family="PlemolJP35 Console NF Medium,PlemolJP35 Console NF Medium_MSFontService,sans-serif" font-weight="500" font-size="21" transform="translate(772.771 192)">①</text><text fill="#0059CC" font-family="PlemolJP35 Console NF Medium,PlemolJP35 Console NF Medium_MSFontService,sans-serif" font-weight="500" font-size="21" transform="translate(806.937 192)">Decrement the allocation count</text><text fill="#0059CC" font-family="PlemolJP35 Console NF Medium,PlemolJP35 Console NF Medium_MSFontService,sans-serif" font-weight="500" font-size="21" transform="translate(772.771 218)">allocationCount</text><text fill="#0059CC" font-family="PlemolJP35 Console NF Medium,PlemolJP35 Console NF Medium_MSFontService,sans-serif" font-weight="500" font-size="21" transform="translate(965.271 218)">--</text><text fill="#0059CC" font-family="PlemolJP35 Console NF Medium,PlemolJP35 Console NF Medium_MSFontService,sans-serif" font-weight="500" font-size="21" transform="translate(990.937 218)">;</text><text fill="#0059CC" font-family="PlemolJP35 Console NF Medium,PlemolJP35 Console NF Medium_MSFontService,sans-serif" font-weight="500" font-size="21" transform="translate(772.771 269)">②</text><text fill="#0059CC" font-family="PlemolJP35 Console NF Medium,PlemolJP35 Console NF Medium_MSFontService,sans-serif" font-weight="500" font-size="21" transform="translate(806.937 269)">If the allocation count is 0,</text><text fill="#0059CC" font-family="PlemolJP35 Console NF Medium,PlemolJP35 Console NF Medium_MSFontService,sans-serif" font-weight="500" font-size="21" transform="translate(868.771 295)">reset pointer</text><text fill="#0059CC" font-family="PlemolJP35 Console NF Medium,PlemolJP35 Console NF Medium_MSFontService,sans-serif" font-weight="500" font-size="21" transform="translate(772.771 320)">if (</text><text fill="#0059CC" font-family="PlemolJP35 Console NF Medium,PlemolJP35 Console NF Medium_MSFontService,sans-serif" font-weight="500" font-size="21" transform="translate(824.104 320)">allocationCount</text><text fill="#0059CC" font-family="PlemolJP35 Console NF Medium,PlemolJP35 Console NF Medium_MSFontService,sans-serif" font-weight="500" font-size="21" transform="translate(1029.44 320)">=== 0) {</text><text fill="#0059CC" font-family="PlemolJP35 Console NF Medium,PlemolJP35 Console NF Medium_MSFontService,sans-serif" font-weight="500" font-size="21" transform="translate(824.104 346)">allocatedMemoryLocation</text><text fill="#0059CC" font-family="PlemolJP35 Console NF Medium,PlemolJP35 Console NF Medium_MSFontService,sans-serif" font-weight="500" font-size="21" transform="translate(1132.1 346)">= 0;</text><text fill="#0059CC" font-family="PlemolJP35 Console NF Medium,PlemolJP35 Console NF Medium_MSFontService,sans-serif" font-weight="500" font-size="21" transform="translate(772.771 371)">}</text><text font-family="PlemolJP35 Console NF Medium,PlemolJP35 Console NF Medium_MSFontService,sans-serif" font-weight="500" font-size="21" transform="translate(699.269 667)">The lock is in place to prevent deadlocks.</text></g></svg>