<svg width="1280" height="720" xmlns="http://www.w3.org/2000/svg" xmlns:xlink="http://www.w3.org/1999/xlink" overflow="hidden"><defs><clipPath id="clip0"><rect x="446" y="233" width="75" height="79"/></clipPath><clipPath id="clip1"><rect x="446" y="233" width="75" height="79"/></clipPath><clipPath id="clip2"><rect x="446" y="233" width="75" height="79"/></clipPath><clipPath id="clip3"><path d="M497.716 297.672 483.255 297.672 483.255 258.172 520.755 258.172 520.755 297.672 506.315 297.672C506.315 297.602 506.315 297.532 506.315 297.459 506.315 294.958 504.39 292.93 502.015 292.93 499.641 292.93 497.716 294.957 497.716 297.459 497.716 297.532 497.716 297.602 497.716 297.672Z" fill-rule="evenodd" clip-rule="evenodd"/></clipPath><clipPath id="clip4"><rect x="446" y="233" width="75" height="79"/></clipPath><clipPath id="clip5"><path d="M496.346 272.195C494.65 272.224 493.799 272.229 493.793 272.212 493.503 271.396 492.993 270.677 492.074 270.677 491.199 270.677 490.444 271.346 490.444 272.304 490.444 275.069 496.724 273.262 496.724 278.503 496.724 280.219 495.488 282.786 492.194 282.786 489.655 282.786 487.819 281.484 487.407 278.737L490.184 278.729C490.19 278.751 490.196 278.773 490.203 278.794 490.497 279.741 491.082 280.4 492.177 280.4 493.224 280.4 494.099 279.822 494.099 278.611 494.099 275.792 487.819 277.418 487.819 272.629 487.819 270.099 489.844 268.292 492.16 268.292 494.424 268.292 496.123 269.828 496.346 272.195ZM500.502 282.569 497.825 282.569 497.825 268.509 500.502 268.509Z" fill-rule="evenodd" clip-rule="evenodd"/></clipPath><clipPath id="clip6"><path d="M468.917 247.264C468.917 247.334 468.917 247.403 468.917 247.477 468.917 249.979 466.991 252.006 464.617 252.006 462.242 252.006 460.317 249.978 460.317 247.477 460.317 247.403 460.317 247.334 460.317 247.264L445.877 247.264 445.877 286.764 483.377 286.764 483.377 247.264Z" fill-rule="evenodd" clip-rule="evenodd"/></clipPath><clipPath id="clip7"><path d="M454.588 268.551 457.073 268.551 458.77 278.069 458.801 278.069 460.84 268.551 463.165 268.551 465.007 278.186 465.043 278.186 466.977 268.551 469.414 268.551 466.247 282.536 463.781 282.536 461.954 273.018 461.906 273.018 459.951 282.536 457.439 282.536ZM472.216 268.551 476.134 268.551 480.025 282.536 477.461 282.536 476.615 279.424 472.152 279.424 471.499 282.536 469.002 282.536ZM473.708 271.998 472.624 277.129 475.997 277.129 474.753 271.998Z"/></clipPath><clipPath id="clip8"><rect x="127" y="595" width="96" height="95"/></clipPath><clipPath id="clip9"><rect x="127" y="595" width="96" height="95"/></clipPath><clipPath id="clip10"><rect x="127" y="595" width="96" height="95"/></clipPath><clipPath id="clip11"><path d="M193.196 672.77 174.686 672.77 174.686 625.27 222.686 625.27 222.686 672.77 204.203 672.77C204.203 672.686 204.203 672.602 204.203 672.514 204.203 669.506 201.739 667.067 198.699 667.067 195.66 667.067 193.196 669.505 193.196 672.514 193.196 672.602 193.196 672.686 193.196 672.77Z" fill-rule="evenodd" clip-rule="evenodd"/></clipPath><clipPath id="clip12"><rect x="127" y="595" width="96" height="95"/></clipPath><clipPath id="clip13"><path d="M191.443 642.134C189.273 642.168 188.183 642.174 188.175 642.153 187.804 641.173 187.151 640.308 185.975 640.308 184.855 640.308 183.888 641.112 183.888 642.264 183.888 645.589 191.926 643.416 191.926 649.718 191.926 651.783 190.345 654.869 186.128 654.869 182.878 654.869 180.528 653.304 180.001 650.001L183.555 649.991C183.563 650.017 183.571 650.043 183.58 650.069 183.956 651.207 184.704 652 186.107 652 187.446 652 188.566 651.305 188.566 649.849 188.566 646.458 180.528 648.414 180.528 642.655 180.528 639.613 183.12 637.44 186.085 637.44 188.983 637.44 191.157 639.287 191.443 642.134ZM196.762 654.608 193.336 654.608 193.336 637.7 196.762 637.7Z" fill-rule="evenodd" clip-rule="evenodd"/></clipPath><clipPath id="clip14"><path d="M156.333 612.153C156.333 612.237 156.333 612.321 156.333 612.409 156.333 615.417 153.869 617.855 150.83 617.855 147.79 617.855 145.326 615.417 145.326 612.409 145.326 612.321 145.326 612.237 145.326 612.153L126.843 612.153 126.843 659.653 174.843 659.653 174.843 612.153Z" fill-rule="evenodd" clip-rule="evenodd"/></clipPath><clipPath id="clip15"><path d="M137.993 637.751 141.174 637.751 143.346 649.197 143.385 649.197 145.995 637.751 148.971 637.751 151.329 649.337 151.375 649.337 153.85 637.751 156.97 637.751 152.916 654.569 149.759 654.569 147.421 643.123 147.36 643.123 144.857 654.569 141.642 654.569ZM160.557 637.751 165.572 637.751 170.552 654.569 167.27 654.569 166.187 650.827 160.474 650.827 159.638 654.569 156.442 654.569ZM162.466 641.896 161.078 648.067 165.397 648.067 163.804 641.896Z"/></clipPath></defs><g><rect x="0" y="0" width="1280" height="720" fill="#FFFFFF"/><path d="M15 84.5963C15 76.535 21.535 70 29.5963 70L1249.4 70C1257.46 70 1264 76.535 1264 84.5963L1264 691.404C1264 699.465 1257.46 706 1249.4 706L29.5963 706C21.535 706 15 699.465 15 691.404Z" stroke="#275317" stroke-width="6" stroke-miterlimit="8" fill="#B4E5A2" fill-rule="evenodd"/><path d="M15 32.0005C15 25.3728 20.3728 20 27.0004 20L498 20C504.627 20 510 25.3728 510 32.0005L510 79.9995C510 86.6272 504.627 92 498 92L27.0004 92C20.3728 92 15 86.6272 15 79.9995Z" stroke="#275317" stroke-width="6" stroke-miterlimit="8" fill="#FFFFFF" fill-rule="evenodd"/><text font-family="PlemolJP35 Console NF Medium,PlemolJP35 Console NF Medium_MSFontService,sans-serif" font-weight="500" font-size="40" transform="translate(130.595 70)">File system</text><path d="M333 142.844C333 138.512 336.512 135 340.844 135L684.156 135C688.488 135 692 138.512 692 142.844L692 466.156C692 470.488 688.488 474 684.156 474L340.844 474C336.512 474 333 470.488 333 466.156Z" stroke="#3B7D23" stroke-width="6" stroke-miterlimit="8" fill="#D9F2D0" fill-rule="evenodd"/><path d="M333 120.167C333 115.104 337.104 111 342.167 111L568.833 111C573.896 111 578 115.104 578 120.167L578 156.833C578 161.896 573.896 166 568.833 166L342.167 166C337.104 166 333 161.896 333 156.833Z" stroke="#3B7D23" stroke-width="6" stroke-miterlimit="8" fill="#FFFFFF" fill-rule="evenodd"/><text font-family="PlemolJP35 Console NF Medium,PlemolJP35 Console NF Medium_MSFontService,sans-serif" font-weight="500" font-size="29" transform="translate(385.309 149)">thread B</text><path d="M348 208.893C348 207.295 349.295 206 350.893 206L675.107 206C676.705 206 678 207.295 678 208.893L678 328.107C678 329.705 676.705 331 675.107 331L350.893 331C349.295 331 348 329.705 348 328.107Z" stroke="#4EA72E" stroke-width="6" stroke-miterlimit="8" fill="#E4F6DE" fill-rule="evenodd"/><path d="M348 185.167C348 180.656 351.656 177 356.167 177L669.833 177C674.344 177 678 180.656 678 185.167L678 217.833C678 222.344 674.344 226 669.833 226L356.167 226C351.656 226 348 222.344 348 217.833Z" stroke="#4EA72E" stroke-width="6" stroke-miterlimit="8" fill="#FFFFFF" fill-rule="evenodd"/><text font-family="PlemolJP35 Console NF Medium,PlemolJP35 Console NF Medium_MSFontService,sans-serif" font-weight="500" font-size="24" transform="translate(412.504 210)">WASIFarmAnimal</text><path d="M423 251.5C423 245.701 427.701 241 433.5 241L629.5 241C635.299 241 640 245.701 640 251.5L640 293.5C640 299.299 635.299 304 629.5 304L433.5 304C427.701 304 423 299.299 423 293.5Z" stroke="#8ED973" stroke-width="6" stroke-miterlimit="8" fill="#FFFFFF" fill-rule="evenodd"/><text font-family="PlemolJP35 Console NF Medium,PlemolJP35 Console NF Medium_MSFontService,sans-serif" font-weight="500" font-size="27" transform="translate(526.33 281)">Wasm</text><g clip-path="url(#clip0)"><g clip-path="url(#clip1)"><g clip-path="url(#clip2)"><g clip-path="url(#clip3)"><g clip-path="url(#clip4)"><path d="M36.9484 13.2965 75.0611 13.2965 75.0611 51.4092 36.9484 51.4092Z" fill="#9639BE" transform="matrix(1 0 0 -1.05333 446 312)"/></g></g><g clip-path="url(#clip5)"><g><path d="M41.101 27.4289 54.8081 27.4289 54.8081 41.8014 41.101 41.8014Z" fill="#FFFFFF" transform="matrix(1 0 0 -1.05333 446 312)"/></g></g><g><g clip-path="url(#clip6)"><g><path d="M0 23.6519 37.6837 23.6519 37.6837 61.7646 0 61.7646Z" fill="#634CF2" transform="matrix(1 0 0 -1.05333 446 312)"/></g></g></g><g clip-path="url(#clip7)"><g><path d="M8.28184 27.6654 34.3314 27.6654 34.3314 41.5557 8.28184 41.5557Z" fill="#FFFFFF" transform="matrix(1 0 0 -1.05333 446 312)"/></g></g></g></g></g><path d="M32 149.549C32 145.932 34.9319 143 38.5485 143L308.452 143C312.068 143 315 145.932 315 149.549L315 470.452C315 474.068 312.068 477 308.452 477L38.5485 477C34.9319 477 32 474.068 32 470.452Z" stroke="#3B7D23" stroke-width="6" stroke-miterlimit="8" fill="#D9F2D0" fill-rule="evenodd"/><path d="M32 123.167C32 118.104 36.1041 114 41.1668 114L226.833 114C231.896 114 236 118.104 236 123.167L236 159.833C236 164.896 231.896 169 226.833 169L41.1668 169C36.1041 169 32 164.896 32 159.833Z" stroke="#3B7D23" stroke-width="6" stroke-miterlimit="8" fill="#FFFFFF" fill-rule="evenodd"/><text font-family="PlemolJP35 Console NF Medium,PlemolJP35 Console NF Medium_MSFontService,sans-serif" font-weight="500" font-size="29" transform="translate(63.3543 152)">thread A</text><path d="M43 211.916C43 210.305 44.3054 209 45.9157 209L301.084 209C302.695 209 304 210.305 304 211.916L304 332.084C304 333.695 302.695 335 301.084 335L45.9157 335C44.3054 335 43 333.695 43 332.084Z" stroke="#4EA72E" stroke-width="6" stroke-miterlimit="8" fill="#E4F6DE" fill-rule="evenodd"/><path d="M43 187.667C43 182.88 46.8803 179 51.6669 179L295.333 179C300.12 179 304 182.88 304 187.667L304 222.333C304 227.12 300.12 231 295.333 231L51.6669 231C46.8803 231 43 227.12 43 222.333Z" stroke="#4EA72E" stroke-width="6" stroke-miterlimit="8" fill="#FFFFFF" fill-rule="evenodd"/><text font-family="PlemolJP35 Console NF Medium,PlemolJP35 Console NF Medium_MSFontService,sans-serif" font-weight="500" font-size="24" transform="translate(80.0859 214)">ThreadSpawner</text><path d="M987 111.877C987 108.631 989.631 106 992.877 106L1235.12 106C1238.37 106 1241 108.631 1241 111.877L1241 472.123C1241 475.369 1238.37 478 1235.12 478L992.877 478C989.631 478 987 475.369 987 472.123Z" stroke="#3B7D23" stroke-width="6" stroke-miterlimit="8" fill="#D9F2D0" fill-rule="evenodd"/><path d="M987 88.5C987 84.9101 989.91 82 993.5 82L1234.5 82C1238.09 82 1241 84.9101 1241 88.5L1241 114.5C1241 118.09 1238.09 121 1234.5 121L993.5 121C989.91 121 987 118.09 987 114.5Z" stroke="#3B7D23" stroke-width="6" stroke-miterlimit="8" fill="#FFFFFF" fill-rule="evenodd"/><text font-family="PlemolJP35 Console NF Medium,PlemolJP35 Console NF Medium_MSFontService,sans-serif" font-weight="500" font-size="27" transform="translate(1018.07 111)">thread D</text><text font-family="PlemolJP35 Console NF Medium,PlemolJP35 Console NF Medium_MSFontService,sans-serif" font-weight="500" font-size="27" transform="translate(1162.07 111)">etc</text><path d="M997 172.841C997 170.72 998.72 169 1000.84 169L1228.16 169C1230.28 169 1232 170.72 1232 172.841L1232 331.159C1232 333.28 1230.28 335 1228.16 335L1000.84 335C998.72 335 997 333.28 997 331.159Z" stroke="#4EA72E" stroke-width="6" stroke-miterlimit="8" fill="#E4F6DE" fill-rule="evenodd"/><path d="M997 139C997 134.582 1000.58 131 1005 131L1224 131C1228.42 131 1232 134.582 1232 139L1232 171C1232 175.418 1228.42 179 1224 179L1005 179C1000.58 179 997 175.418 997 171Z" stroke="#4EA72E" stroke-width="6" stroke-miterlimit="8" fill="#FFFFFF" fill-rule="evenodd"/><text font-family="PlemolJP35 Console NF Medium,PlemolJP35 Console NF Medium_MSFontService,sans-serif" font-weight="500" font-size="27" transform="translate(1050.24 164)">WASIFarm</text><path d="M0 14.7499 270.981 14.7499 270.981 0 290 29.5002 270.981 59 270.981 44.2501 0 44.2501Z" fill="#4E95D9" fill-rule="evenodd" transform="matrix(-1 0 0 1 418 255)"/><path d="M163.5 261.667C163.5 258.261 166.261 255.5 169.667 255.5L402.333 255.5C405.739 255.5 408.5 258.261 408.5 261.667L408.5 286.333C408.5 289.739 405.739 292.5 402.333 292.5L169.667 292.5C166.261 292.5 163.5 289.739 163.5 286.333Z" stroke="#4E95D9" stroke-width="3" stroke-miterlimit="8" fill="#FFFFFF" fill-rule="evenodd"/><text font-family="PlemolJP35 Console NF Medium,PlemolJP35 Console NF Medium_MSFontService,sans-serif" font-weight="500" font-size="21" transform="translate(182.481 281)">To create thread</text><path d="M716 212.877C716 209.631 718.631 207 721.877 207L964.123 207C967.369 207 970 209.631 970 212.877L970 471.123C970 474.369 967.369 477 964.123 477L721.877 477C718.631 477 716 474.369 716 471.123Z" stroke="#3B7D23" stroke-width="6" stroke-miterlimit="8" fill="#D9F2D0" fill-rule="evenodd"/><path d="M716 189.5C716 185.91 718.91 183 722.5 183L963.5 183C967.09 183 970 185.91 970 189.5L970 215.5C970 219.09 967.09 222 963.5 222L722.5 222C718.91 222 716 219.09 716 215.5Z" stroke="#3B7D23" stroke-width="6" stroke-miterlimit="8" fill="#FFFFFF" fill-rule="evenodd"/><text font-family="PlemolJP35 Console NF Medium,PlemolJP35 Console NF Medium_MSFontService,sans-serif" font-weight="500" font-size="27" transform="translate(755.092 212)">Main thread</text><path d="M726 262.689C726 261.756 726.756 261 727.689 261L959.311 261C960.244 261 961 261.756 961 262.689L961 332.311C961 333.244 960.244 334 959.311 334L727.689 334C726.756 334 726 333.244 726 332.311Z" stroke="#4EA72E" stroke-width="6" stroke-miterlimit="8" fill="#E4F6DE" fill-rule="evenodd"/><path d="M726 238.5C726 234.91 728.91 232 732.5 232L954.5 232C958.09 232 961 234.91 961 238.5L961 264.5C961 268.09 958.09 271 954.5 271L732.5 271C728.91 271 726 268.09 726 264.5Z" stroke="#4EA72E" stroke-width="6" stroke-miterlimit="8" fill="#FFFFFF" fill-rule="evenodd"/><text font-family="PlemolJP35 Console NF Medium,PlemolJP35 Console NF Medium_MSFontService,sans-serif" font-weight="500" font-size="27" transform="translate(779.266 261)">WASIFarm</text><path d="M31 508.467C31 506 32.9997 504 35.4665 504L1223.53 504C1226 504 1228 506 1228 508.467L1228 692.533C1228 695 1226 697 1223.53 697L35.4665 697C32.9997 697 31 695 31 692.533Z" stroke="#3B7D23" stroke-width="6" stroke-miterlimit="8" fill="#D9F2D0" fill-rule="evenodd"/><path d="M31 492.167C31 487.104 35.1042 483 40.1669 483L530.833 483C535.896 483 540 487.104 540 492.167L540 528.833C540 533.896 535.896 538 530.833 538L40.1669 538C35.1042 538 31 533.896 31 528.833Z" stroke="#3B7D23" stroke-width="6" stroke-miterlimit="8" fill="#FFFFFF" fill-rule="evenodd"/><text font-family="PlemolJP35 Console NF Medium,PlemolJP35 Console NF Medium_MSFontService,sans-serif" font-weight="500" font-size="35" transform="translate(170.78 523)">thread E</text><text font-family="PlemolJP35 Console NF Medium,PlemolJP35 Console NF Medium_MSFontService,sans-serif" font-weight="500" font-size="35" transform="translate(358.28 523)">etc</text><path d="M49 591.221C49 589.995 49.9945 589 51.2213 589L1208.78 589C1210.01 589 1211 589.995 1211 591.221L1211 682.779C1211 684.005 1210.01 685 1208.78 685L51.2213 685C49.9945 685 49 684.005 49 682.779Z" stroke="#4EA72E" stroke-width="6" stroke-miterlimit="8" fill="#E4F6DE" fill-rule="evenodd"/><path d="M49 555.833C49 550.955 52.9548 547 57.8333 547L455.167 547C460.045 547 464 550.955 464 555.833L464 591.167C464 596.045 460.045 600 455.167 600L57.8333 600C52.9548 600 49 596.045 49 591.167Z" stroke="#4EA72E" stroke-width="6" stroke-miterlimit="8" fill="#FFFFFF" fill-rule="evenodd"/><text font-family="PlemolJP35 Console NF Medium,PlemolJP35 Console NF Medium_MSFontService,sans-serif" font-weight="500" font-size="27" transform="translate(144.097 582)">WASIFarmAnimal</text><path d="M493.863 649 493.863 320.43 473 320.43 521 289 569 320.43 548.137 320.43 548.137 649Z" fill="#4E95D9" fill-rule="evenodd"/><path d="M498.5 447.833C498.5 443.783 501.783 440.5 505.833 440.5L535.167 440.5C539.217 440.5 542.5 443.783 542.5 447.833L542.5 603.167C542.5 607.217 539.217 610.5 535.167 610.5L505.833 610.5C501.783 610.5 498.5 607.217 498.5 603.167Z" stroke="#4E95D9" stroke-width="3" stroke-miterlimit="8" fill="#FFFFFF" fill-rule="evenodd"/><text font-family="PlemolJP35 Console NF Medium,PlemolJP35 Console NF Medium_MSFontService,sans-serif" font-weight="500" font-size="21" transform="matrix(6.12323e-17 1 -1 6.12323e-17 512.153 467)">Thread ID</text><path d="M24 356.423C24 350.114 29.1141 345 35.4227 345L1244.58 345C1250.89 345 1256 350.114 1256 356.423L1256 437.577C1256 443.886 1250.89 449 1244.58 449L35.4227 449C29.1141 449 24 443.886 24 437.577Z" stroke="#215F9A" stroke-width="6" stroke-miterlimit="8" fill="#DCEAF7" fill-rule="evenodd"/><path d="M114 412.667C114 409.537 116.537 407 119.667 407L420.333 407C423.463 407 426 409.537 426 412.667L426 435.333C426 438.463 423.463 441 420.333 441L119.667 441C116.537 441 114 438.463 114 435.333Z" stroke="#4E95D9" stroke-width="4" stroke-miterlimit="8" fill="#FFFFFF" fill-rule="evenodd"/><text font-family="PlemolJP35 Console NF Medium,PlemolJP35 Console NF Medium_MSFontService,sans-serif" font-weight="500" font-size="21" transform="translate(167.436 431)">simple allocator</text><path d="M646 292.084 864.667 292.084 864.667 281 891 306.5 864.667 332 864.667 320.916 646 320.916Z" fill="#4E95D9" fill-rule="evenodd"/><path d="M653.5 289.333C653.5 286.112 656.112 283.5 659.333 283.5L852.667 283.5C855.888 283.5 858.5 286.112 858.5 289.333L858.5 312.667C858.5 315.888 855.888 318.5 852.667 318.5L659.333 318.5C656.112 318.5 653.5 315.888 653.5 312.667Z" stroke="#4E95D9" stroke-width="3" stroke-miterlimit="8" fill="#FFFFFF" fill-rule="evenodd"/><text font-family="PlemolJP35 Console NF Medium,PlemolJP35 Console NF Medium_MSFontService,sans-serif" font-weight="500" font-size="21" transform="translate(684.93 308)">Access file</text><path d="M534 412.667C534 409.537 536.537 407 539.667 407L836.333 407C839.463 407 842 409.537 842 412.667L842 435.333C842 438.463 839.463 441 836.333 441L539.667 441C536.537 441 534 438.463 534 435.333Z" stroke="#4E95D9" stroke-width="4" stroke-miterlimit="8" fill="#FFFFFF" fill-rule="evenodd"/><text font-family="PlemolJP35 Console NF Medium,PlemolJP35 Console NF Medium_MSFontService,sans-serif" font-weight="500" font-size="21" transform="translate(578.678 431)">SharedArrayBuffer</text><path d="M118 623.5C118 617.701 122.701 613 128.5 613L352.5 613C358.299 613 363 617.701 363 623.5L363 665.5C363 671.299 358.299 676 352.5 676L128.5 676C122.701 676 118 671.299 118 665.5Z" stroke="#8ED973" stroke-width="6" stroke-miterlimit="8" fill="#FFFFFF" fill-rule="evenodd"/><text font-family="PlemolJP35 Console NF Medium,PlemolJP35 Console NF Medium_MSFontService,sans-serif" font-weight="500" font-size="27" transform="translate(235.003 654)">Wasm</text><g clip-path="url(#clip8)"><g clip-path="url(#clip9)"><g clip-path="url(#clip10)"><g clip-path="url(#clip11)"><g clip-path="url(#clip12)"><path d="M46.8014 16.8423 95.0774 16.8423 95.0774 65.1183 46.8014 65.1183Z" fill="#9639BE" transform="matrix(1.01053 0 0 -1 127 690)"/></g></g><g clip-path="url(#clip13)"><g><path d="M52.0613 34.7432 69.4236 34.7432 69.4236 52.9484 52.0613 52.9484Z" fill="#FFFFFF" transform="matrix(1.01053 0 0 -1 127 690)"/></g></g><g><g clip-path="url(#clip14)"><g><path d="M0 29.9591 47.7327 29.9591 47.7327 78.2351 0 78.2351Z" fill="#634CF2" transform="matrix(1.01053 0 0 -1 127 690)"/></g></g></g><g clip-path="url(#clip15)"><g><path d="M10.4903 35.0428 43.4865 35.0428 43.4865 52.6372 10.4903 52.6372Z" fill="#FFFFFF" transform="matrix(1.01053 0 0 -1 127 690)"/></g></g></g></g></g><path d="M592 535.031C592 533.357 593.357 532 595.031 532L883.969 532C885.643 532 887 533.357 887 535.031L887 659.969C887 661.643 885.643 663 883.969 663L595.031 663C593.357 663 592 661.643 592 659.969Z" stroke="#C04F15" stroke-width="6" stroke-miterlimit="8" fill="#FBE3D6" fill-rule="evenodd"/><text font-family="PlemolJP35 Console NF Medium,PlemolJP35 Console NF Medium_MSFontService,sans-serif" font-weight="500" font-size="24" transform="translate(617.814 563)">The management of</text><text font-family="PlemolJP35 Console NF Medium,PlemolJP35 Console NF Medium_MSFontService,sans-serif" font-weight="500" font-size="24" transform="translate(624.981 592)">file descriptors</text><text font-family="PlemolJP35 Console NF Medium,PlemolJP35 Console NF Medium_MSFontService,sans-serif" font-weight="500" font-size="24" transform="translate(610.647 620)">between threads is</text><text font-family="PlemolJP35 Console NF Medium,PlemolJP35 Console NF Medium_MSFontService,sans-serif" font-weight="500" font-size="24" transform="translate(682.314 649)">omitted.</text><path d="M836.074 118.001 849.295 118.244 862.482 118.957 875.459 120.106 888.126 121.662 900.384 123.593 912.134 125.87 923.275 128.463 933.712 131.346 943.349 134.491 952.094 137.877 959.858 141.488 966.563 145.324 972.132 149.412 976.383 153.738 978.1 156.201 979.369 158.725 980.184 161.394 980.428 163.756 980.426 163.736 980.853 167.684 980.688 166.902 981.933 170.819 981.669 170.183 983.677 174.038 983.372 173.544 986.09 177.307 985.781 176.93 989.153 180.569 988.857 180.281 992.828 183.766 992.55 183.543 997.066 186.842 996.804 186.666 1001.81 189.749 1001.56 189.608 1007.01 192.444 1006.77 192.329 1012.59 194.887 1012.24 194.752 1024.82 198.911 1024.24 198.766 1031.71 200.046 1030.36 207.931 1022.59 206.6 1009.55 202.288 1003.43 199.6 997.739 196.636 992.475 193.395 987.686 189.897 983.425 186.158 979.747 182.188 976.717 177.992 974.414 173.572 972.942 168.943 972.471 164.586 972.266 162.6 972.42 163.358 971.818 161.386 972.07 162.015 971.082 160.051 971.373 160.541 970.013 158.588 970.441 159.105 966.652 155.25 967.139 155.67 962.012 151.908 962.393 152.155 956.032 148.516 956.332 148.671 948.839 145.186 949.082 145.29 940.561 141.99 940.764 142.063 931.318 138.98 931.494 139.033 921.224 136.196 921.382 136.237 910.392 133.678 910.538 133.71 898.931 131.46 899.07 131.485 886.949 129.575 887.084 129.594 874.551 128.055 874.685 128.069 861.844 126.931 861.981 126.941 848.934 126.236 849.076 126.241 835.926 125.999ZM1028.47 191.602 1050.9 206.332 1025.66 215.437Z" fill="#4E95D9"/><path d="M24 357.333C24 352.731 27.7309 349 32.3332 349L1247.67 349C1252.27 349 1256 352.731 1256 357.333L1256 390.667C1256 395.269 1252.27 399 1247.67 399L32.3332 399C27.7309 399 24 395.269 24 390.667Z" stroke="#215F9A" stroke-width="6" stroke-miterlimit="8" fill="#FFFFFF" fill-rule="evenodd"/><text font-family="PlemolJP35 Console NF Medium,PlemolJP35 Console NF Medium_MSFontService,sans-serif" font-weight="500" font-size="29" transform="translate(389.833 384)">WASIFarmPark</text><text font-family="PlemolJP35 Console NF Medium,PlemolJP35 Console NF Medium_MSFontService,sans-serif" font-weight="500" font-size="29" transform="translate(601.833 384)">（</text><text font-family="PlemolJP35 Console NF Medium,PlemolJP35 Console NF Medium_MSFontService,sans-serif" font-weight="500" font-size="29" transform="translate(631.167 384)">communication</text><text font-family="PlemolJP35 Console NF Medium,PlemolJP35 Console NF Medium_MSFontService,sans-serif" font-weight="500" font-size="29" transform="translate(860.833 384)">）</text><path d="M878 411.667C878 408.537 880.537 406 883.667 406L1190.33 406C1193.46 406 1196 408.537 1196 411.667L1196 434.333C1196 437.463 1193.46 440 1190.33 440L883.667 440C880.537 440 878 437.463 878 434.333Z" stroke="#4E95D9" stroke-width="4" stroke-miterlimit="8" fill="#FFFFFF" fill-rule="evenodd"/><text font-family="PlemolJP35 Console NF Medium,PlemolJP35 Console NF Medium_MSFontService,sans-serif" font-weight="500" font-size="21" transform="translate(934.549 431)">Precompiled WASM</text><path d="M0 26.5002 281 26.5002 281 0 334 53 281 106 281 79.5002 0 79.5002Z" fill="#4E95D9" fill-rule="evenodd" transform="matrix(1.83697e-16 1 1 -1.83697e-16 29 250)"/><path d="M59.5001 272.834C59.5001 268.783 62.7834 265.5 66.8336 265.5L96.1665 265.5C100.217 265.5 103.5 268.783 103.5 272.834L103.5 542.167C103.5 546.217 100.217 549.5 96.1665 549.5L66.8336 549.5C62.7834 549.5 59.5001 546.217 59.5001 542.167Z" stroke="#4E95D9" stroke-width="3" stroke-miterlimit="8" fill="#FFFFFF" fill-rule="evenodd"/><text font-family="PlemolJP35 Console NF Medium,PlemolJP35 Console NF Medium_MSFontService,sans-serif" font-weight="500" font-size="21" transform="matrix(6.12323e-17 1 -1 6.12323e-17 72.435 324)">Create thread</text><path d="M902.474 658 902.474 318.603 889 318.603 920 292 951 318.603 937.526 318.603 937.526 658Z" fill="#4E95D9" fill-rule="evenodd"/><path d="M906.5 381.833C906.5 379.44 908.44 377.5 910.833 377.5L928.167 377.5C930.56 377.5 932.5 379.44 932.5 381.833L932.5 596.167C932.5 598.56 930.56 600.5 928.167 600.5L910.833 600.5C908.44 600.5 906.5 598.56 906.5 596.167Z" stroke="#4E95D9" stroke-width="3" stroke-miterlimit="8" fill="#FFFFFF" fill-rule="evenodd"/><text font-family="PlemolJP35 Console NF Medium,PlemolJP35 Console NF Medium_MSFontService,sans-serif" font-weight="500" font-size="21" transform="matrix(6.12323e-17 1 -1 6.12323e-17 911.035 418)">Access file</text><path d="M1167.47 622 1167.47 283.603 1154 283.603 1185 257 1216 283.603 1202.53 283.603 1202.53 622Z" fill="#4E95D9" fill-rule="evenodd"/><path d="M1171.5 346.833C1171.5 344.44 1173.44 342.5 1175.83 342.5L1193.17 342.5C1195.56 342.5 1197.5 344.44 1197.5 346.833L1197.5 560.167C1197.5 562.56 1195.56 564.5 1193.17 564.5L1175.83 564.5C1173.44 564.5 1171.5 562.56 1171.5 560.167Z" stroke="#4E95D9" stroke-width="3" stroke-miterlimit="8" fill="#FFFFFF" fill-rule="evenodd"/><text font-family="PlemolJP35 Console NF Medium,PlemolJP35 Console NF Medium_MSFontService,sans-serif" font-weight="500" font-size="21" transform="matrix(6.12323e-17 1 -1 6.12323e-17 1175.91 383)">Access file</text><path d="M0 0C29.9458 0 59.8915 31.6582 59.8915 63.3165 59.8915 94.9747 127.837 126.633 195.782 126.633" stroke="#4E95D9" stroke-width="8" stroke-miterlimit="8" fill="none" fill-rule="evenodd" transform="matrix(1 0 0 -1 641 247.633)"/><path d="M732.5 99.3336C732.5 96.1118 735.112 93.5001 738.334 93.5001L932.667 93.5001C935.888 93.5001 938.5 96.1118 938.5 99.3336L938.5 122.667C938.5 125.888 935.888 128.5 932.667 128.5L738.334 128.5C735.112 128.5 732.5 125.888 732.5 122.667Z" stroke="#4E95D9" stroke-width="3" stroke-miterlimit="8" fill="#FFFFFF" fill-rule="evenodd"/><text font-family="PlemolJP35 Console NF Medium,PlemolJP35 Console NF Medium_MSFontService,sans-serif" font-weight="500" font-size="21" transform="translate(764.046 117)">Access file</text></g></svg>